<svg width="132" height="32" viewBox="0 0 132 32" fill="none" xmlns="http://www.w3.org/2000/svg" aria-label="OPA">
  <path
    fill-rule="evenodd"
    clip-rule="evenodd"
    fill="#FFFFFF"
    d="M8 0H38V23C38 28.25 33.75 32 28.5 32H0V14C0 6.25 6.25 0 14 0H8ZM18 8C14.69 8 12 10.69 12 14V24H28C31.31 24 34 21.31 34 18V8H18Z"
  />
  <path
    fill-rule="evenodd"
    clip-rule="evenodd"
    fill="#FFFFFF"
    d="M57 0H90V19C90 24.25 85.75 28 80.5 28H67V32H57V0ZM67 8V20H79.5C82.54 20 85 17.54 85 14.5V8H67Z"
  />
  <path d="M99 0H109V32H99V0Z" fill="#FFFFFF" />
  <path d="M99 0H122V8H99V0Z" fill="#FFFFFF" />
  <path d="M121 0H130L132 0.2L120 32H110.5L121 0Z" fill="#FFFFFF" />
</svg>
